<svg xmlns="http://www.w3.org/2000/svg" viewBox="0 0 553.0 120" width="553" height="120">
<path transform="matrix(0.0984,0,0,-0.0984,20.00,102.00)" d="M103 91V584Q103 618 85.5 632.0Q68 646 20 651V676H325Q498 676 597.0 588.0Q696 500 696.0 345.0Q696 190 597.0 95.0Q498 0 336 0H20V25Q63 26 83.0 42.0Q103 58 103 91ZM522 330Q522 418 504.0 482.0Q486 546 456.0 579.0Q426 612 393.5 627.0Q361 642 324 642Q265 642 265 607V93Q265 59 277.0 47.0Q289 35 323 35Q522 35 522 330Z" fill="white"/><path transform="matrix(0.0984,0,0,-0.0984,99.80,102.00)" d="M353 31Q462 31 519.0 75.0Q576 119 617 208H645L605 0H20V25Q76 31 92.0 44.0Q108 57 108 96V580Q108 618 90.0 633.0Q72 648 20 651V676H597V475H572Q553 575 505.0 608.5Q457 642 335 642Q296 642 283.0 632.5Q270 623 270 595V363Q351 363 386.0 395.0Q421 427 432 512H458V174H432Q423 261 387.5 295.0Q352 329 270 329V87Q270 55 287.5 43.0Q305 31 353 31Z" fill="white"/><path transform="matrix(0.0984,0,0,-0.0984,172.13,102.00)" d="M413 29Q479 29 533.0 61.0Q587 93 643 152L673 127Q673 127 660.0 112.5Q647 98 643.5 94.5Q640 91 625.5 76.5Q611 62 603.0 56.0Q595 50 578.0 37.5Q561 25 548.5 19.0Q536 13 516.0 4.5Q496 -4 477.5 -8.5Q459 -13 436.0 -16.0Q413 -19 389 -19Q234 -19 134.5 80.0Q35 179 35 333Q35 486 134.5 588.5Q234 691 383 691Q430 691 471.5 678.5Q513 666 541.0 654.0Q569 642 584 642Q598 642 608.0 652.0Q618 662 628 688H655V454H630Q620 476 609.0 495.5Q598 515 575.0 547.0Q552 579 528.0 601.5Q504 624 468.5 641.0Q433 658 396 658Q306 658 259.0 577.0Q212 496 212 341Q212 29 413 29Z" fill="white"/><path transform="matrix(0.0984,0,0,-0.0984,249.67,102.00)" d="M353 31Q462 31 519.0 75.0Q576 119 617 208H645L605 0H20V25Q76 31 92.0 44.0Q108 57 108 96V580Q108 618 90.0 633.0Q72 648 20 651V676H597V475H572Q553 575 505.0 608.5Q457 642 335 642Q296 642 283.0 632.5Q270 623 270 595V363Q351 363 386.0 395.0Q421 427 432 512H458V174H432Q423 261 387.5 295.0Q352 329 270 329V87Q270 55 287.5 43.0Q305 31 353 31Z" fill="white"/><path transform="matrix(0.0984,0,0,-0.0984,321.99,102.00)" d="M266 303V117Q266 62 280.5 47.5Q295 33 354 25V0H20V25Q42 29 44 29Q79 33 91.5 51.5Q104 70 104 117V559Q104 612 88.0 629.5Q72 647 20 651V676H342Q467 676 535.5 628.5Q604 581 604 494Q604 436 571.5 392.0Q539 348 479 325Q446 312 407.0 308.0Q368 304 266 303ZM266 338Q364 338 398.0 368.0Q432 398 432 489Q432 570 405.0 605.5Q378 641 316 641Q266 641 266 606Z" fill="white"/><path transform="matrix(0.0984,0,0,-0.0984,392.74,102.00)" d="M242 117V644Q149 641 105.5 602.5Q62 564 49 475H20L23 676H623L625 475H596Q583 564 539.5 602.5Q496 641 404 644V117Q404 60 420.5 45.0Q437 30 502 25V0H145V25Q209 30 225.5 45.5Q242 61 242 117Z" fill="white"/><path transform="matrix(0.0984,0,0,-0.0984,464.08,102.00)" d="M690 25V0H366V25Q387 28 398 28Q446 31 446.0 61.0Q446 91 400 197H175L160 158Q131 83 131 66Q131 47 150.0 37.5Q169 28 213 25V0H10V25Q46 32 62.5 52.0Q79 72 108 142L330 690H358L581 164Q618 76 637.5 50.5Q657 25 686 25ZM190 236H385L284 479Z" fill="white"/>
</svg>